<svg width="28" height="28" viewBox="0 0 28 28" fill="none" xmlns="http://www.w3.org/2000/svg">
<path fill-rule="evenodd" clip-rule="evenodd" d="M6.18941 6.18933C9.87208 2.508 11.7121 0.666664 14.0001 0.666664C16.2881 0.666664 18.1281 2.50666 21.8107 6.18933C25.4934 9.872 27.3334 11.712 27.3334 14C27.3334 16.288 25.4934 18.128 21.8107 21.8107C18.1281 25.4933 16.2881 27.3333 14.0001 27.3333C11.7121 27.3333 9.87208 25.4933 6.18941 21.8107C2.50675 18.128 0.666748 16.288 0.666748 14C0.666748 11.712 2.50675 9.872 6.18941 6.18933ZM16.4614 9.26933C16.3656 9.17951 16.2529 9.10944 16.13 9.06314C16.007 9.01684 15.8762 8.99521 15.7449 8.99948C15.6136 9.00375 15.4844 9.03384 15.3647 9.08804C15.2451 9.14223 15.1372 9.21947 15.0474 9.31533C14.9576 9.4112 14.8875 9.52382 14.8412 9.64676C14.7949 9.7697 14.7733 9.90056 14.7776 10.0319C14.7818 10.1632 14.8119 10.2923 14.8661 10.412C14.9203 10.5317 14.9976 10.6395 15.0934 10.7293L16.8041 12.3333H12.2227C11.4827 12.3333 10.3854 12.5333 9.44008 13.1707C8.44275 13.844 7.66675 14.98 7.66675 16.6667C7.66675 16.9319 7.7721 17.1862 7.95964 17.3738C8.14718 17.5613 8.40153 17.6667 8.66675 17.6667C8.93196 17.6667 9.18632 17.5613 9.37385 17.3738C9.56139 17.1862 9.66675 16.9319 9.66675 16.6667C9.66675 15.6867 10.0761 15.156 10.5601 14.8293C11.0572 14.5121 11.6331 14.3403 12.2227 14.3333H16.8041L15.0934 15.9373C14.9045 16.1198 14.795 16.3693 14.7885 16.6319C14.782 16.8945 14.8791 17.1491 15.0587 17.3407C15.2384 17.5323 15.4863 17.6455 15.7487 17.6558C16.0112 17.6662 16.2672 17.5728 16.4614 17.396L20.0174 14.0627C20.1171 13.9691 20.1966 13.8562 20.2509 13.7307C20.3052 13.6053 20.3333 13.47 20.3333 13.3333C20.3333 13.1966 20.3052 13.0614 20.2509 12.9359C20.1966 12.8105 20.1171 12.6975 20.0174 12.604L16.4614 9.26933Z" fill="#A6BED8"/>
</svg>
