<svg width="28" height="28" viewBox="0 0 28 28" fill="none" xmlns="http://www.w3.org/2000/svg">
<path fill-rule="evenodd" clip-rule="evenodd" d="M14.9427 1.05734C14.6926 0.807374 14.3535 0.666954 14 0.666954C13.6464 0.666954 13.3074 0.807374 13.0573 1.05734L3.72399 10.3907L1.05732 13.0573C0.929972 13.1803 0.828396 13.3275 0.758518 13.4901C0.688639 13.6528 0.651857 13.8278 0.650319 14.0048C0.64878 14.1818 0.682516 14.3574 0.749557 14.5213C0.816598 14.6851 0.915603 14.834 1.04079 14.9592C1.16598 15.0844 1.31485 15.1834 1.47871 15.2504C1.64258 15.3175 1.81815 15.3512 1.99519 15.3497C2.17223 15.3481 2.34719 15.3114 2.50986 15.2415C2.67253 15.1716 2.81966 15.07 2.94265 14.9427L3.33332 14.552V23.3333C3.33332 24.3942 3.75475 25.4116 4.50489 26.1618C5.25504 26.9119 6.27245 27.3333 7.33332 27.3333H20.6667C21.7275 27.3333 22.7449 26.9119 23.4951 26.1618C24.2452 25.4116 24.6667 24.3942 24.6667 23.3333V14.552L25.0573 14.9427C25.3088 15.1855 25.6456 15.3199 25.9952 15.3169C26.3448 15.3139 26.6792 15.1736 26.9264 14.9264C27.1736 14.6792 27.3138 14.3448 27.3169 13.9952C27.3199 13.6456 27.1855 13.3088 26.9427 13.0573L14.9427 1.05734Z" fill="#185366"/>
</svg>
