<svg width="24" height="28" viewBox="0 0 24 28" fill="none" xmlns="http://www.w3.org/2000/svg">
<path d="M10.7893 1.44134C10.8897 1.22329 11.047 1.03636 11.2447 0.900274C11.4424 0.76419 11.6732 0.683998 11.9127 0.668159C12.1522 0.652321 12.3915 0.701423 12.6054 0.810284C12.8193 0.919146 12.9999 1.08373 13.128 1.28667L13.2107 1.44134L23.884 24.5947C24.148 25.3493 23.9507 26.1893 23.38 26.748C23.1288 26.9963 22.8175 27.1751 22.4765 27.2669C22.1355 27.3588 21.7766 27.3605 21.4347 27.272L11.9987 24.0747L2.80001 27.192C2.46482 27.3227 2.10118 27.3631 1.74549 27.309C1.3898 27.255 1.05456 27.1084 0.773342 26.884L0.624009 26.7507C0.0933419 26.236 -0.117325 25.4787 0.100009 24.676L0.162675 24.476L10.7893 1.44134Z" fill="#A6BED8"/>
</svg>
