<svg width="28" height="28" viewBox="0 0 28 28" fill="none" xmlns="http://www.w3.org/2000/svg">
<path fill-rule="evenodd" clip-rule="evenodd" d="M14.0001 3.33333C12.1344 3.33299 10.3013 3.82198 8.68372 4.7515C7.06611 5.68102 5.72058 7.01856 4.78145 8.6306C3.84232 10.2426 3.34242 12.0728 3.33165 13.9384C3.32088 15.8041 3.79963 17.6399 4.7201 19.2627C5.34224 18.4541 6.142 17.7994 7.05754 17.3493C7.97308 16.8992 8.97988 16.6656 10.0001 16.6667H18.0001C19.0203 16.6656 20.0271 16.8992 20.9426 17.3493C21.8582 17.7994 22.6579 18.4541 23.2801 19.2627C24.2006 17.6399 24.6793 15.8041 24.6685 13.9384C24.6578 12.0728 24.1579 10.2426 23.2187 8.6306C22.2796 7.01856 20.9341 5.68102 19.3165 4.7515C17.6989 3.82198 15.8658 3.33299 14.0001 3.33333ZM24.5908 22.1013C24.7579 21.8836 24.9179 21.6604 25.0708 21.432C26.5489 19.2356 27.3369 16.6475 27.3334 14C27.3334 6.636 21.3641 0.666664 14.0001 0.666664C6.6361 0.666664 0.666762 6.636 0.666762 14C0.66256 16.929 1.62681 19.7772 3.40943 22.1013L3.40276 22.1253L3.8761 22.676C5.12661 24.138 6.67927 25.3115 8.42707 26.1155C10.1749 26.9196 12.0762 27.335 14.0001 27.3333C14.2881 27.3333 14.5743 27.3244 14.8588 27.3067C17.2646 27.155 19.5837 26.3506 21.5668 24.98C22.5152 24.3257 23.3748 23.5513 24.1241 22.676L24.5974 22.1253L24.5908 22.1013ZM14.0001 6C12.9392 6 11.9218 6.42143 11.1717 7.17157C10.4215 7.92172 10.0001 8.93913 10.0001 10C10.0001 11.0609 10.4215 12.0783 11.1717 12.8284C11.9218 13.5786 12.9392 14 14.0001 14C15.061 14 16.0784 13.5786 16.8285 12.8284C17.5787 12.0783 18.0001 11.0609 18.0001 10C18.0001 8.93913 17.5787 7.92172 16.8285 7.17157C16.0784 6.42143 15.061 6 14.0001 6Z" fill="#A6BED8"/>
</svg>
