<svg width="48" height="48" viewBox="0 0 48 48" fill="none" xmlns="http://www.w3.org/2000/svg">
<rect width="48" height="48" rx="14" fill="#1877F2"/>
<path d="M33.24 34.6666C30.9929 34.6666 28.6889 34.104 26.328 32.9786C23.9671 31.8533 21.7738 30.2733 19.748 28.2386C17.7222 26.204 16.1466 24.0106 15.0213 21.6586C13.896 19.3066 13.3333 17.0071 13.3333 14.76C13.3333 14.3529 13.4666 14.0138 13.7333 13.7426C14 13.4715 14.3333 13.3351 14.7333 13.3333H18.0306C18.3933 13.3333 18.7098 13.4475 18.98 13.676C19.2502 13.9044 19.4329 14.1973 19.528 14.5546L20.1893 17.7333C20.2515 18.1066 20.2404 18.4324 20.156 18.7106C20.0715 18.9889 19.9235 19.2169 19.712 19.3946L16.7866 22.1226C17.3342 23.1155 17.9391 24.0382 18.6013 24.8906C19.2635 25.7431 19.9702 26.5506 20.7213 27.3133C21.4946 28.0866 22.3275 28.8066 23.22 29.4733C24.1124 30.1391 25.092 30.7675 26.1586 31.3586L29.0106 28.456C29.2275 28.2222 29.4715 28.068 29.7426 27.9933C30.0129 27.9195 30.3124 27.9049 30.6413 27.9493L33.4453 28.5226C33.808 28.6115 34.1022 28.7942 34.328 29.0706C34.5538 29.3471 34.6666 29.6635 34.6666 30.02V33.2666C34.6666 33.6666 34.5306 34 34.2586 34.2666C33.9866 34.5333 33.6462 34.6666 33.24 34.6666ZM16.16 20.872L18.72 18.5186C18.8044 18.4502 18.8595 18.356 18.8853 18.236C18.912 18.116 18.9075 18.0049 18.872 17.9026L18.2813 15.076C18.2466 14.94 18.1866 14.8378 18.1013 14.7693C18.016 14.7009 17.9053 14.6666 17.7693 14.6666H15.0333C14.9311 14.6666 14.8458 14.7009 14.7773 14.7693C14.7089 14.8378 14.6746 14.9231 14.6746 15.0253C14.7004 15.9364 14.8431 16.8875 15.1026 17.8786C15.3622 18.8698 15.7138 19.8675 16.16 20.872ZM27.428 31.984C28.3293 32.4302 29.2893 32.7604 30.308 32.9746C31.3284 33.188 32.2173 33.3022 32.9746 33.3173C33.0769 33.3173 33.1622 33.2831 33.2306 33.2146C33.2991 33.1462 33.3333 33.0613 33.3333 32.96V30.2826C33.3333 30.1466 33.2991 30.0355 33.2306 29.9493C33.1622 29.864 33.06 29.8044 32.924 29.7706L30.4573 29.2653C30.3542 29.2306 30.264 29.2262 30.1866 29.252C30.1102 29.2786 30.0293 29.3342 29.944 29.4186L27.428 31.984Z" fill="white"/>
</svg>
