<svg width="48" height="48" viewBox="0 0 48 48" fill="none" xmlns="http://www.w3.org/2000/svg">
<rect width="48" height="48" rx="14" fill="#1877F2"/>
<path fill-rule="evenodd" clip-rule="evenodd" d="M23.706 14.044C23.8976 13.9851 24.1024 13.9851 24.294 14.044L37.294 18.044C37.4985 18.1069 37.6773 18.2337 37.8044 18.4058C37.9315 18.5778 38 18.7861 38 19V33C38 33.2652 37.8946 33.5196 37.7071 33.7071C37.5196 33.8947 37.2652 34 37 34H30V32H36V19.74L24 16.044L12 19.74V24H10V19C9.99996 18.7861 10.0685 18.5778 10.1956 18.4058C10.3227 18.2337 10.5015 18.1069 10.706 18.044L23.706 14.044ZM22.706 25.292L26.706 29.292C26.7991 29.3849 26.873 29.4953 26.9234 29.6167C26.9738 29.7382 26.9998 29.8685 26.9998 30C26.9998 30.1315 26.9738 30.2618 26.9234 30.3833C26.873 30.5048 26.7991 30.6151 26.706 30.708L22.706 34.708L21.292 33.292L23.586 31H10V29H23.586L21.292 26.708L22.706 25.292Z" fill="white"/>
</svg>
