<svg width="32" height="32" viewBox="0 0 32 32" fill="none" xmlns="http://www.w3.org/2000/svg">
<rect width="32" height="32" rx="16" fill="#1877F2"/>
<path d="M16 9C12.85 9 10 11.2909 10 14.8341C10 17.0966 11.8375 19.7575 15.505 22.8239C15.79 23.0587 16.2175 23.0587 16.5025 22.8239C20.1625 19.7575 22 17.0966 22 14.8341C22 11.2909 19.15 9 16 9ZM16 16.1147C15.175 16.1147 14.5 15.4744 14.5 14.6918C14.5 13.9092 15.175 13.2688 16 13.2688C16.825 13.2688 17.5 13.9092 17.5 14.6918C17.5 15.4744 16.825 16.1147 16 16.1147Z" fill="white"/>
</svg>
