<svg width="32" height="32" viewBox="0 0 32 32" fill="none" xmlns="http://www.w3.org/2000/svg">
<path d="M5.33337 16C5.33337 16.3536 5.47385 16.6928 5.7239 16.9428C5.97395 17.1929 6.31309 17.3334 6.66671 17.3334C7.02033 17.3334 7.35947 17.1929 7.60952 16.9428C7.85956 16.6928 8.00004 16.3536 8.00004 16C8.00004 15.6464 7.85956 15.3073 7.60952 15.0572C7.35947 14.8072 7.02033 14.6667 6.66671 14.6667C6.31309 14.6667 5.97395 14.8072 5.7239 15.0572C5.47385 15.3073 5.33337 15.6464 5.33337 16ZM14.6667 16C14.6667 16.3536 14.8072 16.6928 15.0572 16.9428C15.3073 17.1929 15.6464 17.3334 16 17.3334C16.3537 17.3334 16.6928 17.1929 16.9428 16.9428C17.1929 16.6928 17.3334 16.3536 17.3334 16C17.3334 15.6464 17.1929 15.3073 16.9428 15.0572C16.6928 14.8072 16.3537 14.6667 16 14.6667C15.6464 14.6667 15.3073 14.8072 15.0572 15.0572C14.8072 15.3073 14.6667 15.6464 14.6667 16ZM24 16C24 16.3536 24.1405 16.6928 24.3906 16.9428C24.6406 17.1929 24.9797 17.3334 25.3334 17.3334C25.687 17.3334 26.0261 17.1929 26.2762 16.9428C26.5262 16.6928 26.6667 16.3536 26.6667 16C26.6667 15.6464 26.5262 15.3073 26.2762 15.0572C26.0261 14.8072 25.687 14.6667 25.3334 14.6667C24.9797 14.6667 24.6406 14.8072 24.3906 15.0572C24.1405 15.3073 24 15.6464 24 16Z" stroke="white" stroke-width="2" stroke-linecap="round" stroke-linejoin="round"/>
</svg>
