<svg width="32" height="32" viewBox="0 0 32 32" fill="none" xmlns="http://www.w3.org/2000/svg">
<path d="M19 5C14.8 5 11 8.05459 11 12.7788C11 15.7954 13.45 19.3433 18.34 23.4319C18.72 23.7449 19.29 23.7449 19.67 23.4319C24.55 19.3433 27 15.7954 27 12.7788C27 8.05459 23.2 5 19 5ZM19 14.4863C17.9 14.4863 17 13.6325 17 12.589C17 11.5455 17.9 10.6918 19 10.6918C20.1 10.6918 21 11.5455 21 12.589C21 13.6325 20.1 14.4863 19 14.4863Z" fill="white"/>
<g clip-path="url(#clip0_210_232)">
<path d="M5.375 25.375V21.3125H6.625V25.375H10.6875V26.625H6.625V30.6875H5.375V26.625H1.3125V25.375H5.375Z" fill="white"/>
</g>
<defs>
<clipPath id="clip0_210_232">
<rect width="10" height="10" fill="white" transform="translate(1 21)"/>
</clipPath>
</defs>
</svg>
