<svg width="48" height="48" viewBox="0 0 48 48" fill="none" xmlns="http://www.w3.org/2000/svg">
<rect width="48" height="48" rx="24" fill="#0A323F"/>
<path fill-rule="evenodd" clip-rule="evenodd" d="M16.9999 21C16.9999 19.1435 17.7374 17.363 19.0502 16.0503C20.3629 14.7375 22.1434 14 23.9999 14C25.8564 14 27.6369 14.7375 28.9497 16.0503C30.2624 17.363 30.9999 19.1435 30.9999 21V24.764L32.8219 28.408C32.9058 28.5757 32.9454 28.7621 32.937 28.9494C32.9286 29.1368 32.8724 29.3188 32.7738 29.4783C32.6752 29.6379 32.5375 29.7695 32.3737 29.8608C32.2099 29.9521 32.0255 30 31.8379 30H27.8739C27.6515 30.8582 27.1504 31.6183 26.4492 32.1609C25.748 32.7035 24.8865 32.9979 23.9999 32.9979C23.1133 32.9979 22.2518 32.7035 21.5507 32.1609C20.8495 31.6183 20.3484 30.8582 20.1259 30H16.1619C15.9744 30 15.79 29.9521 15.6262 29.8608C15.4624 29.7695 15.3247 29.6379 15.2261 29.4783C15.1275 29.3188 15.0713 29.1368 15.0629 28.9494C15.0545 28.7621 15.0941 28.5757 15.1779 28.408L16.9999 24.764V21ZM22.2679 30C22.4435 30.304 22.6959 30.5565 23 30.732C23.304 30.9075 23.6489 30.9999 23.9999 30.9999C24.351 30.9999 24.6959 30.9075 24.9999 30.732C25.3039 30.5565 25.5564 30.304 25.7319 30H22.2679ZM23.9999 16C22.6738 16 21.4021 16.5268 20.4644 17.4645C19.5267 18.4021 18.9999 19.6739 18.9999 21V24.764C18.9999 25.0743 18.9277 25.3804 18.7889 25.658L17.6189 28H30.3819L29.2119 25.658C29.0728 25.3805 29.0003 25.0744 28.9999 24.764V21C28.9999 19.6739 28.4731 18.4021 27.5355 17.4645C26.5978 16.5268 25.326 16 23.9999 16Z" fill="white"/>
</svg>
