<svg width="16" height="18" viewBox="0 0 16 18" fill="none" xmlns="http://www.w3.org/2000/svg">
<path d="M1.616 18C1.168 18 0.786667 17.8427 0.472 17.528C0.157333 17.2133 0 16.8323 0 16.385V3.615C0 3.16833 0.157333 2.78733 0.472 2.472C0.786667 2.15733 1.168 2 1.616 2H6.316C6.22467 1.48933 6.34667 1.02833 6.682 0.617C7.01667 0.205667 7.456 0 8 0C8.55667 0 9.00267 0.205667 9.338 0.617C9.67333 1.02833 9.789 1.48933 9.685 2H14.385C14.8317 2 15.2127 2.15733 15.528 2.472C15.8427 2.78667 16 3.168 16 3.616V16.385C16 16.8317 15.8427 17.2127 15.528 17.528C15.2133 17.8427 14.8323 18 14.385 18H1.616ZM1.616 17H14.385C14.5383 17 14.6793 16.936 14.808 16.808C14.9367 16.68 15.0007 16.5387 15 16.384V3.616C15 3.462 14.936 3.32067 14.808 3.192C14.68 3.06333 14.5387 2.99933 14.384 3H1.616C1.462 3 1.32067 3.064 1.192 3.192C1.06333 3.32 0.999333 3.46133 1 3.616V16.385C1 16.5383 1.064 16.6793 1.192 16.808C1.32 16.9367 1.461 17.0007 1.615 17M3.5 14.27H9.5V13.27H3.5V14.27ZM3.5 10.5H12.5V9.5H3.5V10.5ZM3.5 6.73H12.5V5.73H3.5V6.73ZM8 2.443C8.21667 2.443 8.396 2.37233 8.538 2.231C8.68 2.08967 8.75067 1.91033 8.75 1.693C8.74933 1.47567 8.67833 1.29667 8.537 1.156C8.39567 1.01533 8.21667 0.944 8 0.942C7.78333 0.94 7.60433 1.011 7.463 1.155C7.32167 1.299 7.25067 1.478 7.25 1.692C7.24933 1.906 7.32033 2.08533 7.463 2.23C7.60567 2.37467 7.78467 2.44633 8 2.443Z" fill="white"/>
</svg>
