<svg width="18" height="16" viewBox="0 0 18 16" fill="none" xmlns="http://www.w3.org/2000/svg">
<path d="M17.7352 5.39845C17.3297 10.6656 9.63359 14.8695 9.29766 15.05C9.20664 15.099 9.10491 15.1246 9.00156 15.1246C8.89822 15.1246 8.79648 15.099 8.70547 15.05C8.35938 14.8649 0.25 10.4375 0.25 4.96876C0.249783 4.09132 0.487915 3.23029 0.938962 2.47765C1.39001 1.72501 2.03703 1.10903 2.81091 0.695492C3.5848 0.281956 4.45648 0.0864019 5.33286 0.129716C6.20923 0.17303 7.05738 0.453586 7.78672 0.941417C7.82537 0.967045 7.85783 1.00095 7.88175 1.04068C7.90567 1.08041 7.92044 1.12497 7.925 1.17112C7.92957 1.21727 7.9238 1.26385 7.90813 1.3075C7.89245 1.35114 7.86726 1.39075 7.83438 1.42345L6.79063 2.46876C6.6735 2.58596 6.60771 2.74487 6.60771 2.91056C6.60771 3.07625 6.6735 3.23516 6.79063 3.35235L9.33203 5.89376L7.67188 7.54689C7.6114 7.60435 7.56303 7.67333 7.52963 7.74978C7.49623 7.82622 7.47848 7.90858 7.47741 7.992C7.47634 8.07541 7.49198 8.1582 7.52341 8.23547C7.55484 8.31275 7.60143 8.38295 7.66042 8.44194C7.7194 8.50093 7.78961 8.54751 7.86688 8.57894C7.94416 8.61037 8.02694 8.62601 8.11036 8.62495C8.19377 8.62388 8.27613 8.60612 8.35258 8.57272C8.42902 8.53932 8.49801 8.49096 8.55547 8.43048L10.6555 6.33126C10.7726 6.21406 10.8384 6.05515 10.8384 5.88946C10.8384 5.72377 10.7726 5.56487 10.6555 5.44767L8.11719 2.9086L9.48203 1.54376C9.93455 1.08893 10.4734 0.729122 11.0669 0.485483C11.6605 0.241845 12.2967 0.119287 12.9383 0.125011C15.7758 0.14298 17.9523 2.56954 17.7352 5.39845Z" fill="#A6BED8"/>
</svg>
