<svg width="16" height="18" viewBox="0 0 16 18" fill="none" xmlns="http://www.w3.org/2000/svg">
<path d="M3.625 5.875C3.625 4.71468 4.08594 3.60188 4.90641 2.78141C5.72688 1.96094 6.83968 1.50001 8 1.50001C9.16032 1.50001 10.2731 1.96094 11.0936 2.78141C11.9141 3.60188 12.375 4.71468 12.375 5.875C12.375 6.04077 12.4408 6.19974 12.5581 6.31695C12.6753 6.43416 12.8342 6.5 13 6.5C13.1658 6.5 13.3247 6.43416 13.4419 6.31695C13.5592 6.19974 13.625 6.04077 13.625 5.875C13.6249 4.91571 13.3795 3.97238 12.9121 3.13467C12.4447 2.29695 11.7708 1.5927 10.9544 1.08885C10.1381 0.584996 9.2065 0.298284 8.24815 0.255965C7.28978 0.213646 6.33652 0.417127 5.47897 0.847066C4.62142 1.277 3.88807 1.91912 3.34863 2.71237C2.80918 3.50562 2.48157 4.42365 2.39694 5.3792C2.3123 6.33475 2.47345 7.29607 2.86506 8.17179C3.25667 9.04751 3.86574 9.80853 4.63437 10.3825C5.29349 10.8749 6.05257 11.2166 6.85813 11.3838C6.97002 11.6347 7.16152 11.8419 7.40298 11.9731C7.64444 12.1043 7.92241 12.1523 8.19389 12.1096C8.46536 12.0669 8.71521 11.936 8.90478 11.737C9.09435 11.5381 9.21307 11.2822 9.24258 11.009C9.27208 10.7358 9.21073 10.4604 9.06802 10.2256C8.9253 9.99075 8.70917 9.80948 8.45306 9.70984C8.19696 9.61019 7.91515 9.59772 7.65124 9.67435C7.38733 9.75098 7.15603 9.91244 6.99312 10.1338C6.03412 9.90696 5.17977 9.36303 4.56847 8.59009C3.95717 7.81715 3.62473 6.86046 3.625 5.875ZM4.25 5.875C4.25025 5.18512 4.44079 4.50868 4.80068 3.92011C5.16056 3.33153 5.67583 2.85364 6.2898 2.53902C6.90376 2.2244 7.59261 2.08524 8.28056 2.13685C8.9685 2.18846 9.62888 2.42885 10.189 2.83156C10.7492 3.23427 11.1874 3.7837 11.4554 4.41938C11.7234 5.05506 11.8109 5.75237 11.7082 6.43456C11.6055 7.11676 11.3166 7.7574 10.8733 8.286C10.43 8.8146 9.8495 9.21067 9.19563 9.43063C8.85936 9.15229 8.43652 8.99999 8 9C7.54563 9 7.12937 9.16188 6.80437 9.43063C6.05984 9.18018 5.41276 8.70224 4.95444 8.06428C4.49613 7.42631 4.24972 6.66053 4.25 5.875ZM8 12.75C8.30005 12.7502 8.59575 12.6783 8.86227 12.5405C9.12879 12.4027 9.35833 12.2029 9.53163 11.9579C9.70493 11.713 9.81691 11.43 9.85817 11.1328C9.89943 10.8357 9.86877 10.5329 9.76875 10.25H13.3125C13.8927 10.25 14.4491 10.4805 14.8593 10.8907C15.2695 11.3009 15.5 11.8573 15.5 12.4375V12.75C15.5 14.2456 14.5481 15.5106 13.1969 16.3706C11.8381 17.2356 9.99875 17.75 8 17.75C6.00125 17.75 4.1625 17.2356 2.80312 16.3706C1.45187 15.5106 0.5 14.2456 0.5 12.75V12.4375C0.5 11.8573 0.730468 11.3009 1.1407 10.8907C1.55094 10.4805 2.10734 10.25 2.6875 10.25H3.53688C4.33622 11.0662 5.34397 11.6477 6.45062 11.9313C6.78813 12.4256 7.35687 12.75 8 12.75Z" fill="#A6BED8"/>
</svg>
