<svg width="30" height="30" viewBox="0 0 30 30" fill="none" xmlns="http://www.w3.org/2000/svg">
<path d="M15 19V1.66669M15 1.66669L19 6.33335M15 1.66669L11 6.33335" stroke="white" stroke-width="2" stroke-linecap="round" stroke-linejoin="round"/>
<path d="M9.66675 28.3334H20.3334C24.1041 28.3334 25.9908 28.3334 27.1614 27.1627C28.3334 25.9894 28.3334 24.1054 28.3334 20.3334V19C28.3334 15.2294 28.3334 13.344 27.1614 12.172C26.1374 11.148 24.5668 11.0187 21.6668 11.0027M8.33342 11.0027C5.43342 11.0187 3.86275 11.148 2.83875 12.172C1.66675 13.344 1.66675 15.2294 1.66675 19V20.3334C1.66675 24.1054 1.66675 25.9907 2.83875 27.1627C3.23875 27.5627 3.72142 27.8254 4.33342 27.9987" stroke="white" stroke-width="2" stroke-linecap="round"/>
</svg>
